<svg width="1080.008" height="1080" viewBox="0 0 285.752 285.75" xmlns="http://www.w3.org/2000/svg"><path style="display:inline;fill:currentcolor;fill-opacity:1;fill-rule:nonzero;stroke:none;stroke-width:.79375;stroke-linejoin:round" d="M-249.407-82.395a15.58 15.58 0 0 0-15.617 15.617V37.456a15.58 15.58 0 0 0 15.617 15.616h104.234a15.58 15.58 0 0 0 15.616-15.616V-66.778a15.58 15.58 0 0 0-15.616-15.617zm1.571 10a7.188 7.188 0 1 1 0 14.377 7.188 7.188 0 0 1 0-14.377m101.091 0a7.188 7.188 0 1 1 0 14.377 7.188 7.188 0 0 1 0-14.377m-50.545 7.188c27.915 0 50.545 22.63 50.545 50.546 0 27.915-22.63 50.545-50.545 50.545s-50.546-22.63-50.546-50.545 22.63-50.546 50.546-50.546m0 43.358a7.188 7.188 0 1 0 0 14.376 7.188 7.188 0 0 0 0-14.376m-50.546 50.545a7.188 7.188 0 1 1 0 14.376 7.188 7.188 0 0 1 0-14.376m101.091 0a7.188 7.188 0 1 1 0 14.376 7.188 7.188 0 0 1 0-14.376" transform="translate(265.023 82.395)"/><g style="display:inline" transform="translate(150.283 -1.321)scale(.50488)"><path style="display:inline;fill:none;fill-opacity:1;stroke:currentcolor;stroke-width:16.1679;stroke-linejoin:round;stroke-dasharray:none;stroke-opacity:1" d="M22.689 10.73c130.41-2.094 239.746 109.107 237.515 237.547-.002 8.028-6.557 14.572-14.551 14.572H22.723c-8.141 0-14.639-6.573-14.639-14.539V25.371c0-8.35 6.771-14.641 14.605-14.641Z"/><circle style="display:inline;opacity:1;fill:none;fill-opacity:1;fill-rule:nonzero;stroke:currentcolor;stroke-width:16.1679;stroke-linecap:round;stroke-linejoin:bevel;stroke-dasharray:none;stroke-opacity:1" cx="35.682" cy="235.251" r="27.598"/><path style="display:inline;opacity:1;fill:currentcolor;fill-opacity:1;stroke:currentcolor;stroke-width:16.1679;stroke-linecap:round;stroke-linejoin:round;stroke-dasharray:none" d="M78.836 79.866 11.063 222.699Zm0 0-15.64 155.469c1.736-17.252-14.503-27.663-27.514-27.683S8.084 220.01 8.084 235.251"/><g style="display:inline"><path style="fill:none;fill-opacity:1;fill-rule:nonzero;stroke:currentcolor;stroke-width:10;stroke-linecap:round;stroke-linejoin:bevel;stroke-dasharray:none;stroke-opacity:1" d="m51.821 14.845-2.336 19.234m57.156-5.722-6.87 18.116m56.864 8.122-11.007 15.946m53.268 21.495-14.503 12.848m46.577 33.618-17.157 9.004m37.177 43.788-18.812 4.637" transform="rotate(-3.184 23.59 247.343)"/><path style="display:inline;fill:none;fill-opacity:1;fill-rule:nonzero;stroke:currentcolor;stroke-width:10;stroke-linecap:round;stroke-linejoin:bevel;stroke-dasharray:none;stroke-opacity:1" d="M257.796 247.343h-19.375" transform="rotate(-3.184 23.59 247.343)"/></g></g><g transform="rotate(45 -50.193 374.396)scale(.54748)" style="display:inline"><rect style="opacity:1;fill:none;fill-opacity:1;fill-rule:nonzero;stroke:currentcolor;stroke-width:15.875;stroke-linecap:round;stroke-linejoin:round;stroke-dasharray:none;stroke-opacity:1" width="81.796" height="270.933" x="11.86" ry="21.443"/><g style="stroke-width:10.5833;stroke-dasharray:none"><path style="opacity:1;fill:none;fill-opacity:1;fill-rule:nonzero;stroke:currentcolor;stroke-width:10.5833;stroke-linecap:round;stroke-linejoin:round;stroke-dasharray:none;stroke-opacity:1" d="M93.656 33.994H49.032M93.656 68.39h-28.22m28.22 34.395h-28.22m28.22 34.396H49.032m44.624 34.396h-28.22m28.22 34.396h-28.22m28.22 34.396H49.032"/></g></g><g style="display:inline;stroke-width:26.2091;stroke-dasharray:none"><path style="opacity:1;fill:none;fill-opacity:1;fill-rule:nonzero;stroke:currentcolor;stroke-width:26.2091;stroke-linecap:round;stroke-linejoin:round;stroke-dasharray:none;stroke-opacity:1" d="M35.548 126.803h199.84l-31.34-31.34-31.516-31.515m62.854 95.415H35.546l31.34 31.34 31.515 31.516" transform="translate(-3.133 143.165)scale(.52314)"/></g></svg>